<?xml version="1.0" encoding="UTF-8"?>
<svg width="1156.2" height="615" version="1.1" viewBox="0 0 1156.2 615" xml:space="preserve" xmlns="http://www.w3.org/2000/svg" xmlns:xlink="http://www.w3.org/1999/xlink"><rect width="1156.2" height="615" fill="#2b3a42"/><g transform="translate(30.116 -.85391)" fill="none" fill-rule="evenodd"><text fill="#86a5ba" font-family="'Source Sans Pro', sans-serif" font-size="18px" font-weight="600"><tspan x="933.77802" y="459">STATIC ASSETS</tspan></text><g transform="translate(1002,326)"><use fill="#526b78" fill-opacity=".1" fill-rule="evenodd" xlink:href="#path-1"/><rect x="-2" y="-2" width="84" height="84" rx="3" stroke="#526b78" stroke-width="4"/><text fill="#ffffff" font-family="'Source Sans Pro', sans-serif" font-size="22px" font-weight="500"><tspan x="18.891001" y="46.709679">.png</tspan></text></g><g transform="translate(1002,214)"><use fill="#526b78" fill-opacity=".1" fill-rule="evenodd" xlink:href="#path-2"/><rect x="-2" y="-2" width="84" height="84" rx="3" stroke="#526b78" stroke-width="4"/><text fill="#ffffff" font-family="'Source Sans Pro', sans-serif" font-size="22px" font-weight="500"><tspan x="22.532" y="46.709679">.css</tspan></text></g><g transform="translate(894,326)"><use fill="#526b78" fill-opacity=".1" fill-rule="evenodd" xlink:href="#path-3"/><rect x="-2" y="-2" width="84" height="84" rx="3" stroke="#526b78" stroke-width="4"/><text fill="#ffffff" font-family="'Source Sans Pro', sans-serif" font-size="22px" font-weight="500"><tspan x="21.816999" y="46.709679">.jpg</tspan></text></g><g transform="translate(894,214)"><use fill="#526b78" fill-opacity=".1" fill-rule="evenodd" xlink:href="#path-4"/><rect x="-2" y="-2" width="84" height="84" rx="3" stroke="#526b78" stroke-width="4"/><text fill="#ffffff" font-family="'Source Sans Pro', sans-serif" font-size="22px" font-weight="500"><tspan x="29" y="46.709679">.js</tspan></text></g><g transform="translate(342,225)" stroke="#7e8c94" stroke-width="4"><path d="m499.56 86.52s-14.706-5.5-59.651 22.917c-44.945 28.417-58.915 55-58.915 55" stroke-dasharray="7"/><path d="m499.56 86.062s-14.706 5.5-59.651-22.917c-44.945-28.417-58.915-55-58.915-55" stroke-dasharray="7"/><path d="m0.47794 170.4s168.9-71.5 447.37-71.5" stroke-dasharray="6"/><path transform="matrix(1,0,0,-1,0,73.29)" d="m0.47794 72.395s168.9-71.5 447.37-71.5" stroke-dasharray="6"/></g><text fill="#86a5ba" font-family="'Source Sans Pro', sans-serif" font-size="18px" font-weight="600"><tspan x="24.934" y="562">MODULES WITH DEPENDENCIES</tspan></text><g transform="translate(228,335)"><use fill="#526b78" fill-opacity=".1" fill-rule="evenodd" xlink:href="#path-5"/><rect x="-2" y="-2" width="66" height="66" rx="3" stroke="#526b78" stroke-width="4"/><text fill="#ffffff" font-family="'Source Sans Pro', sans-serif" font-size="22px" font-weight="500"><tspan x="12.817" y="38">.jpg</tspan></text></g><g transform="translate(228,223)"><use fill="#526b78" fill-opacity=".1" fill-rule="evenodd" xlink:href="#path-6"/><rect x="-2" y="-2" width="66" height="66" rx="3" stroke="#526b78" stroke-width="4"/><text fill="#ffffff" font-family="'Source Sans Pro', sans-serif" font-size="22px" font-weight="500"><tspan x="9.8909998" y="38">.png</tspan></text></g><g transform="matrix(1,0,0,-1,182,425)"><g fill="#bbdbec"><rect width="2" height="6"/><rect x="76" y="6" width="2" height="12"/><rect transform="rotate(-45 75.305 4.7047)" x="74.305" y="1.8797" width="2" height="5.65"/><rect x="2" y="2" width="72" height="2"/></g><polyline points="80 12 77 20.8 74 12" stroke="#bbdbec" stroke-width="2"/></g><g transform="translate(116,391)"><use fill="#526b78" fill-opacity=".1" fill-rule="evenodd" xlink:href="#path-7"/><rect x="-2" y="-2" width="66" height="66" rx="3" stroke="#526b78" stroke-width="4"/><text fill="#ffffff" font-family="'Source Sans Pro', sans-serif" font-size="22px" font-weight="500"><tspan x="8.0760002" y="38">.sass</tspan></text></g><g transform="translate(116,279)"><use fill="#526b78" fill-opacity=".1" fill-rule="evenodd" xlink:href="#path-8"/><rect x="-2" y="-2" width="66" height="66" rx="3" stroke="#526b78" stroke-width="4"/><text fill="#ffffff" font-family="'Source Sans Pro', sans-serif" font-size="22px" font-weight="500"><tspan x="8.0760002" y="38">.sass</tspan></text></g><g transform="translate(182,201)"><g fill="#bbdbec"><rect width="2" height="6"/><rect x="76" y="113" width="2" height="12"/><rect transform="rotate(-45 75.305 111.7)" x="74.305" y="108.88" width="2" height="5.65"/><rect x="26" y="109" width="48" height="2"/><rect transform="rotate(-45 24.705 108.3)" x="23.705" y="105.48" width="2" height="5.65"/><rect x="22" y="6" width="2" height="101"/><rect transform="rotate(-45 21.305 4.7047)" x="20.305" y="1.8797" width="2" height="5.65"/><rect x="2" y="2" width="18" height="2"/></g><polyline points="80 118 77 126.8 74 118" stroke="#bbdbec" stroke-width="2"/></g><g transform="translate(182,189)"><g fill="#bbdbec"><rect width="2" height="6"/><rect x="76" y="6" width="2" height="19"/><rect transform="rotate(-45 75.305 4.7047)" x="74.305" y="1.8797" width="2" height="5.65"/><rect x="2" y="2" width="72" height="2"/></g><polyline points="80 18 77 26.8 74 18" stroke="#bbdbec" stroke-width="2"/></g><g transform="translate(116,167)"><use fill="#526b78" fill-opacity=".1" fill-rule="evenodd" xlink:href="#path-9"/><rect x="-2" y="-2" width="66" height="66" rx="3" stroke="#526b78" stroke-width="4"/><text fill="#ffffff" font-family="'Source Sans Pro', sans-serif" font-size="22px" font-weight="500"><tspan x="20" y="38">.js</tspan></text></g><g transform="matrix(1,0,0,-1,70,481)"><g fill="#bbdbec"><rect width="2" height="6"/><rect x="76" y="6" width="2" height="12"/><rect transform="rotate(-45 75.305 4.7047)" x="74.305" y="1.8797" width="2" height="5.65"/><rect x="2" y="2" width="72" height="2"/></g><polyline points="80 12 77 20.8 74 12" stroke="#bbdbec" stroke-width="2"/></g><g transform="translate(4,447)"><use fill="#526b78" fill-opacity=".1" fill-rule="evenodd" xlink:href="#path-10"/><rect x="-2" y="-2" width="66" height="66" rx="3" stroke="#526b78" stroke-width="4"/><text fill="#ffffff" font-family="'Source Sans Pro', sans-serif" font-size="22px" font-weight="500"><tspan x="8.0760002" y="38">.sass</tspan></text></g><g transform="translate(70,363)"><g fill="#bbdbec"><rect width="2" height="6"/><rect x="76" y="6" width="2" height="12"/><rect transform="rotate(-45 75.305 4.7047)" x="74.305" y="1.8797" width="2" height="5.65"/><rect x="2" y="2" width="72" height="2"/></g><polyline points="80 12 77 20.8 74 12" stroke="#bbdbec" stroke-width="2"/></g><g transform="translate(4,335)"><use fill="#526b78" fill-opacity=".1" fill-rule="evenodd" xlink:href="#path-11"/><rect x="-2" y="-2" width="66" height="66" rx="3" stroke="#526b78" stroke-width="4"/><text fill="#ffffff" font-family="'Source Sans Pro', sans-serif" font-size="22px" font-weight="500"><tspan x="15.38" y="38">.cjs</tspan></text></g><g transform="translate(38,307)"><g fill="#bbdbec"><rect y="22" width="6" height="2"/><rect x="2" y="6" width="2" height="16"/><rect transform="rotate(45 4.7047 4.7047)" x="3.7047" y="1.8797" width="2" height="5.65"/><rect x="6" y="2" width="62" height="2"/></g><polyline transform="rotate(-90,66.4,3)" points="69.4 -1.4 66.4 7.4 63.4 -1.4" stroke="#bbdbec" stroke-width="2"/></g><g transform="translate(26,289)"><polyline points="6 30 3 38.8 0 30" stroke="#bbdbec" stroke-width="2"/><rect x="2" width="2" height="39" fill="#bbdbec"/><rect width="6" height="2" fill="#bbdbec"/></g><g transform="matrix(1,0,0,-1,70,257)"><g fill="#bbdbec"><rect width="2" height="6"/><rect x="76" y="6" width="2" height="12"/><rect transform="rotate(-45 75.305 4.7047)" x="74.305" y="1.8797" width="2" height="5.65"/><rect x="2" y="2" width="72" height="2"/></g><polyline points="80 12 77 20.8 74 12" stroke="#bbdbec" stroke-width="2"/></g><g transform="translate(4,223)"><use fill="#526b78" fill-opacity=".1" fill-rule="evenodd" xlink:href="#path-12"/><rect x="-2" y="-2" width="66" height="66" rx="3" stroke="#526b78" stroke-width="4"/><text fill="#ffffff" font-family="'Source Sans Pro', sans-serif" font-size="22px" font-weight="500"><tspan x="10.947" y="38">.hbs</tspan></text></g><g transform="translate(32,177)"><polyline points="6 30 3 38.8 0 30" stroke="#bbdbec" stroke-width="2"/><rect x="2" width="2" height="39" fill="#bbdbec"/><rect width="6" height="2" fill="#bbdbec"/></g><g transform="translate(4,111)"><use fill="#526b78" fill-opacity=".1" fill-rule="evenodd" xlink:href="#path-13"/><rect x="-2" y="-2" width="66" height="66" rx="3" stroke="#526b78" stroke-width="4"/><text fill="#ffffff" font-family="'Source Sans Pro', sans-serif" font-size="22px" font-weight="500"><tspan x="20" y="38">.js</tspan></text></g></g><g transform="matrix(.98991 0 0 .98991 -675.5 27.53)"><path d="m1278.5 170.48-101.24 58.45 0.1117 0.19512h-0.1117v116.9l101.24 58.45 101.24-58.45v-116.9h-0.1118l0.1118-0.19512z" fill="#fff"/><path d="m1232.2 367.84c-22.528-12.769-40.87-23.512-40.76-23.875 0.1101-0.36248 7.0451-4.5868 15.411-9.3875l15.211-8.7284 51.985 28.761 0.2395 18.267c0.1317 10.047-0.068 18.247-0.443 18.223-0.3754-0.0245-19.115-10.491-41.643-23.26zm50.468 5.0374 0.2395-18.267 51.985-28.761 15.211 8.7284c8.366 4.8006 15.307 9.025 15.425 9.3875 0.1174 0.36248-1.2782 1.4765-3.1014 2.4755s-20.351 11.466-41.172 23.26c-20.822 11.794-38.075 21.444-38.342 21.444s-0.3765-8.2202-0.2448-18.267zm-98.56-84.622v-49.723l1.9937 1.2981c1.0966 0.71393 8.0746 4.7795 15.507 9.0347l13.513 7.7366v64.168l-14.919 8.6049c-8.2054 4.7327-15.183 8.6049-15.507 8.6049-0.3232 0-0.5877-22.375-0.5877-49.723zm172.57 41.099-14.842-8.5918v-64.161l13.513-7.7366c7.4321-4.2551 14.41-8.3208 15.507-9.0347l1.9937-1.2981v49.723c0 27.348-0.299 49.716-0.6646 49.707-0.3655-9e-3 -7.3435-3.8826-15.507-8.6081zm-152.9-88.295c-7.9438-4.5755-14.636-8.5122-14.872-8.7482-0.3894-0.38941 84.052-48.513 85.125-48.513 0.2518 0 0.4579 7.8982 0.4579 17.552v17.552l-26.804 14.746c-14.742 8.1102-27.402 14.968-28.134 15.239-0.7526 0.27897-7.5941-3.1158-15.772-7.8263zm106.38-6.9251-27.691-15.222v-17.557c0-9.6564 0.2021-17.557 0.449-17.557 0.5618 0 83.912 46.977 84.885 47.842 0.6047 0.53749-24.744 15.792-28.623 17.225-0.7567 0.27953-13.255-6.0646-29.02-14.731z" fill="#8ed6fb" stroke-width=".8861"/><path d="m1269.7 345.04c-1.429-0.91299-2.9243-1.4584-3.3229-1.2121-0.3986 0.24634-0.7247 0.11631-0.7247-0.28897 0-0.82851-6.2777-4.4063-6.9204-3.944-0.2273 0.16346-0.6572-0.0704-0.9554-0.51976-0.9606-1.4476-8.6478-5.554-9.2569-4.9449-0.3241 0.32409-0.5892 0.19748-0.5892-0.28136 0-1.046-7.0829-5.1681-7.1024-4.1335-0.01 0.3967-0.3065 0.30148-0.6645-0.21161-1.0931-1.5663-6.9873-4.8408-7.6039-4.2243-0.3184 0.31845-0.579 0.0903-0.579-0.50708 0-0.59735-0.3987-0.83964-0.8861-0.53844-0.4873 0.3012-0.8861 0.21133-0.8861-0.19971 0-1.0651-4.9539-3.855-5.6353-3.1736-0.312 0.31205-0.5674-12.274-0.5674-27.97v-28.537l1.9393 1.8067c1.7656 1.6449 2.975 2.1745 3.6197 1.5852 0.1332-0.12184 1.2053 0.67565 2.3823 1.7722 2.0048 1.8678 3.0847 2.3514 4.6856 2.0986 0.3656-0.0577 0.6646 0.26892 0.6646 0.72587 0 0.89777 8.3379 5.7086 9.3673 5.4048 0.3436-0.10138 0.8686 0.18886 1.1668 0.64499 0.8262 1.2638 8.3567 5.8201 9.6194 5.8201 0.6121 0 1.1128 0.24632 1.1128 0.54737s1.1963 1.254 2.6583 2.1176c1.4621 0.86366 2.6583 1.3328 2.6583 1.0426 0-0.29022 0.8727 0.28536 1.9393 1.279 1.0666 0.9937 2.2628 1.8067 2.6583 1.8067 1.2531 0 2.0064 0.361 3.5988 1.7244 1.4124 1.2093 1.5507 3.6807 1.5507 27.714 0 14.512-0.2991 26.357-0.6646 26.321-0.3655-0.0356-1.8337-0.81178-3.2627-1.7248zm13.674-24.596c0-26.267 0.01-26.394 1.9938-28.093 1.0965-0.93889 2.0934-1.6256 2.2152-1.5261 0.655 0.53518 1.8671-0.0123 3.5988-1.6257 1.0666-0.99368 1.9393-1.5693 1.9393-1.279 0 0.29021 1.1962-0.17897 2.6583-1.0426s2.6583-1.9066 2.6583-2.3176c0-0.41103 0.3842-0.50989 0.8538-0.21967 0.4695 0.29022 1.6658-0.28437 2.6582-1.2769 0.9925-0.99248 2.0039-1.8045 2.2476-1.8045h1.1621c0.3954 0 1.5917-0.81303 2.6583-1.8067s1.9392-1.5693 1.9392-1.279c0 0.29022 1.1963-0.17896 2.6583-1.0426 1.4621-0.86366 2.6583-1.9066 2.6583-2.3176s0.3842-0.50989 0.8538-0.21967c0.4696 0.29021 1.6658-0.28438 2.6583-1.2769s2.0039-1.8045 2.2476-1.8045h1.162c0.3955 0 1.682-0.89717 2.859-1.9937 1.177-1.0965 2.2491-1.894 2.3824-1.7722 0.6446 0.58934 1.854 0.0597 3.6196-1.5852l1.9393-1.8067v28.537c0 15.696-0.2606 28.277-0.579 27.958-0.6166-0.61655-6.5108 2.658-7.6039 4.2243-0.358 0.51309-0.6571 0.6013-0.6645 0.19603-0.015-0.83865-6.3175 2.8118-7.3103 4.2344-0.3581 0.51309-0.6572 0.60831-0.6646 0.21161-0.02-1.0346-7.1024 3.0875-7.1024 4.1335 0 0.47884-0.2651 0.60545-0.5892 0.28136-0.6411-0.64111-8.3079 3.5261-9.3658 5.0907-0.358 0.52955-0.6571 0.63123-0.6646 0.22596-0.015-0.83865-6.3174 2.8118-7.3103 4.2344-0.358 0.51309-0.6571 0.59443-0.6645 0.18078-0.01-0.41365-1.432 0.0848-3.1656 1.1076-1.7336 1.0228-3.3285 1.8597-3.5444 1.8597-0.2158 0-0.3924-11.874-0.3924-26.386zm-6.2026-34.711c0-0.30105-1.1963-1.254-2.6583-2.1176-1.4621-0.86366-2.6583-1.3328-2.6583-1.0426 0 0.29022-0.8579-0.27157-1.9064-1.2484-1.0485-0.97683-2.2448-1.567-2.6583-1.3114s-0.7519 0.1284-0.7519-0.28264c0-0.41103-1.1962-1.454-2.6583-2.3176s-2.6583-1.3328-2.6583-1.0426c0 0.29022-0.8727-0.28535-1.9393-1.279-1.7656-1.6449-2.9749-2.1745-3.6196-1.5852-0.1333 0.12184-1.2053-0.67565-2.3823-1.7722-1.9754-1.8404-2.5918-2.1257-4.1435-1.918-0.3111 0.0416-0.8095-0.29752-1.1077-0.75364-0.8261-1.2638-8.3567-5.8201-9.6194-5.8201-0.612 0-1.1128-0.24632-1.1128-0.54737s-1.1962-1.254-2.6583-2.1177c-1.462-0.86366-2.6583-1.3523-2.6583-1.0858 0 0.26647-0.7975-0.19835-1.7722-1.0329s-1.7722-1.894-1.7722-2.3543c0-0.46026 0.2606-0.57631 0.579-0.25786 0.6166 0.61655 6.5108-2.658 7.6039-4.2243 0.358-0.51307 0.6571-0.60128 0.6645-0.19602 0.015 0.79035 6.2981-2.7771 7.2014-4.0886 0.2982-0.43287 0.8963-0.74386 1.3292-0.69111 1.2041 0.14675 6.5466-2.9076 6.5466-3.7427 0-0.40528 0.3988-0.49045 0.8861-0.18924 0.4874 0.30119 0.8861 0.0589 0.8861-0.53844s0.2554-0.83076 0.5674-0.51869c0.6814 0.68134 5.6353-2.1086 5.6353-3.1737 0-0.41103 0.3988-0.5009 0.8861-0.1997 0.4874 0.3012 0.8861 0.0589 0.8861-0.53843 0-0.59735 0.2553-0.83076 0.5674-0.5187 0.6813 0.68135 5.6353-2.1086 5.6353-3.1736 0-0.41104 0.3987-0.5009 0.8861-0.1997 0.4873 0.30119 0.8861 0.12535 0.8861-0.39076 0-0.51612 0.3206-0.8387 0.7125-0.71686 1.1247 0.34967 7.2609-3.1831 7.2759-4.189 0.01-0.59402 0.2378-0.5848 0.6646 0.0268 1.093 1.5663 6.9873 4.8408 7.6038 4.2243 0.3185-0.31844 0.579-0.0902 0.579 0.50709 0 0.59734 0.3988 0.83963 0.8861 0.53844 0.4874-0.3012 0.8861-0.19879 0.8861 0.22758 0 0.98346 7.0841 5.0111 7.1024 4.0381 0.01-0.3967 0.3065-0.28801 0.6645 0.24153 1.0579 1.5646 8.7247 5.7318 9.3658 5.0907 0.3241-0.32409 0.5893-0.19748 0.5893 0.28136 0 1.046 7.0828 5.1681 7.1023 4.1334 0.01-0.39669 0.3065-0.288 0.6646 0.24154 0.9623 1.4232 9.0666 5.9762 9.0825 5.1026 0.01-0.41183 0.3065-0.32692 0.6645 0.18868 0.3581 0.5156 1.5312 1.5381 2.607 2.2722l1.9559 1.3347-1.9559 1.6747c-1.0758 0.9211-2.0556 1.5933-2.1775 1.4937-0.6536-0.53406-1.8649 0.0104-3.5816 1.6097-1.0571 0.98487-2.1558 1.7335-2.4415 1.6636-0.9905-0.24245-9.2621 4.6354-9.2621 5.462 0 0.45693-0.299 0.78358-0.6645 0.72586-1.601-0.25278-2.6809 0.23089-4.6857 2.0986-1.177 1.0966-2.249 1.894-2.3823 1.7722-0.6447-0.58936-1.854-0.0597-3.6196 1.5852-1.0666 0.9937-1.9393 1.5693-1.9393 1.279 0-0.29021-1.1962 0.17897-2.6583 1.0426s-2.6583 1.9066-2.6583 2.3176c0 0.41104-0.3383 0.53823-0.7519 0.28264-0.4135-0.25559-1.6098 0.33454-2.6583 1.3114-1.0485 0.97684-1.9064 1.5386-1.9064 1.2484 0-0.29021-1.1962 0.17897-2.6583 1.0426-1.462 0.86366-2.6583 1.8166-2.6583 2.1176s-0.5981 0.54736-1.3291 0.54736-1.3291-0.24631-1.3291-0.54736z" fill="#1c78c0" stroke-width=".8861"/></g></svg>
