<?xml version="1.0" encoding="UTF-8"?>
<svg width="2482.6" height="1459.5" version="1.1" viewBox="0 0 2482.6 1459.5" xml:space="preserve" xmlns="http://www.w3.org/2000/svg" xmlns:cc="http://creativecommons.org/ns#" xmlns:dc="http://purl.org/dc/elements/1.1/" xmlns:rdf="http://www.w3.org/1999/02/22-rdf-syntax-ns#"><metadata><rdf:RDF><cc:Work rdf:about=""><dc:format>image/svg+xml</dc:format><dc:type rdf:resource="http://purl.org/dc/dcmitype/StillImage"/></cc:Work></rdf:RDF></metadata><defs><clipPath id="clipPath1530-6"><circle transform="rotate(5.5797)" cx="9140.5" cy="1546.5" r="235.95" fill="none" stroke="#000" stroke-linecap="round" stroke-linejoin="round" stroke-width="7.5591" style="paint-order:markers fill stroke"/></clipPath><clipPath id="clipPath7829"><circle transform="rotate(-24.42)" cx="544.86" cy="290.26" r="62.428" fill="none" stroke="#000" stroke-linecap="round" stroke-linejoin="round" stroke-width=".83518" style="paint-order:markers fill stroke"/></clipPath></defs>
















<g transform="translate(273.84 165.77)"><rect x="-273.84" y="-165.77" width="2482.6" height="1459.5" fill="#fff"/><g transform="translate(-179.62 354.77)"><circle cx="1573.7" cy="229.98" r="106.54" fill="#fff" stroke="#000" stroke-linecap="round" stroke-linejoin="round" stroke-width="1.7272"/><g transform="matrix(1.7272 0 0 1.7272 509.12 161.37)"><g clip-path="url(#clipPath7829)"><path transform="matrix(.26458 0 0 .26458 278.89 -69.321)" d="m1183.1 396.58-149.6 242.78 116.68 11.404 39.463-64.045-22.34 2.502-7.4102-2.0996 0.045 3.8066 0.027 6.5059-1.6992 5.0098-4.9532 3.4902-8.8359-1.0957-4.8828-4.8965-2.3125-13.572 0.2031-13.422-5.0664-17.373 3.7344-20.49 17.309-11.262 14.789-1.4492 4.2129-1.543 5.2188 0.39649 20.531 0.55859 34.356-4.7305 29.438-47.771c-6.8018 2.1619-21.379 6.3965-21.379 6.3965l-17.717 4.082-10.84-2.8281-4.4942-7.7871-0.4785-3.6211-2.248-2.7578-4.2422-4.168 2.2031-5.9062 0.3789-3.627-4.1465 2.9258-4.4531 5.7754-6.7637 12.125-4.207 2.4004s-6.9131-1.1926-8.2149-1.3047c-1.3017-0.11217-3.2793-6.1602-3.2793-6.1602l1.5-8.3457 13.682-24.029 13.607-6.4356 18.248-9.9922 9.7207 2.1172 43.375 4.2695s5.984 0.0571 12.109 0.12696l6.5664-0.20118 8.8457-14.357z" style="paint-order:markers fill stroke"/><g transform="rotate(-24.42 95.811 -264.01)" clip-path="none"><path transform="matrix(.24091 .10939 -.10939 .24091 182.02 -11.05)" d="m1356.4 209.96c-4.001-0.0331-8.1838 0.63484-12.594 2.1816-28.977 6.296-61.32 25.129-73.998 53.375-13.31 20.54-16.293 44.601-8.1582 67.273-5.1177 18.314 10.872 23.92 25.02 21.832 20.094 9.7977 7.9384 42.254 27.562 52.758 0.422 10.038 9.8863 8.5009 15.432 10.748 13.906 15.661 36.185-0.6107 43.139-15.764 20.79-29.52 37.574-64.345 48.682-98.551 3.2433-19.97 11.528-38.336-1.334-56.174-21.611-11.152-39.299-37.478-63.75-37.68zm-4.4043 21.83c2.7634 0.0846 1.659 0.28064 2.6817 1.2969 1.0226 1.0162 1.8454 3.6091 2.5019 5.0898 0.6559 1.4811 0.5645 2.5897 1.4942 3.7617 0.9298 1.172 2.5519 1.4695 4.0449 2.8144 1.493 1.3449 3.6487 3.8185 4.6582 5.3965 1.0095 1.578 0.7032 2.3621 1.6992 3.7422 0.9961 1.3801 3.1445 2.4234 4.4766 4.1445 1.332 1.7212 2.3991 4.0301 3.2949 6.1289 0.8957 2.0989 2.1439 4.796 2.0762 6.4062-0.068 1.6103 0.5248 4.1498 0.623 6.7148 0.098 2.5651 0.8239 7.1118-0.1367 8.6562s-2.2882 9.094-3.9941 10.133c-1.7059 1.039-7.2258 6.0614-10.363 7.4219-3.1375 1.3606-5.9724 2.7115-7.6231 1.5195-1.6506-1.192-3.4314-5.5942-5.3672-7.5469-1.9357-1.9527-4.0264-2.4378-5.8593-4.2441-1.8329-1.8063-3.3313-5.0116-4.9102-6.5742s-2.1306-2.2702-4.1367-3.0234c-2.0061-0.75322-4.3689-1.0678-6.0195-2.2598-1.6507-1.192-3.4961-1.5944-4.6993-4.2441-1.2031-2.6498-4.9301-7.5422-5.1503-11.953-0.2203-4.4109 3.802-11.621 4.0742-12.854 0.2722-1.233 3.8592-8.4206 6.4004-10.949 2.5411-2.5286 4.2862-2.7676 7.6425-4.416 3.3564-1.6485 9.8285-5.2466 12.592-5.1621zm-45.07 50.822c1.3798-0.25284 14.385 6.1719 14.385 6.1719s8.2401 9.1086 8.8027 10.348c0.5626 1.2391 6.1681 8.9082 6.1328 11.037-0.035 2.1289-4.6082 14.12-6.3261 15.273-1.718 1.1537-9.9864 6.7754-9.9864 6.7754l2.7559 6.8691 5.1289 5.7148 8.4961 3.4375 4.5625 1.9609 6.291 9.4531 3.375 7.4336 0.9922 9.1894 0.707 12.883 2.5313 11.73 1.7461 7.8691-0.8067 4.4531-3.3183 3.2695-3.9375 2.6367c-5.9474 1.2206-11.946-0.12499-16.852-5.6504-5.2823-2.1406-14.209-0.53521-14.611-10.098-9.347-5.0028-10.93-19.48-12.764-29.627-1.8341-10.147-5.4744-18.82-15.045-23.486-6.7379 0.99417-14.492 0.48048-19.088-2.2012-4.5963-2.6816-5.1641-8.2048-2.7266-16.928-1.269-3.5371-3.3973-9.4515-4.1015-13.039l14.389-18.184s9.0289-5.1146 11.051-6.4062c1.8954-1.211 15.034-9.5002 17.807-10.738 0.1844-0.0837 0.3233-0.13393 0.4101-0.14844z"/><g stroke="#000"><path d="m473.87 198.04c-0.63849 0.13161-0.43541 1.9468-0.13362 2.617s0.73043 0.91557 1.3986 1.116c0.66818 0.20045 2.2567 0.11312 2.4054 0.66817s-0.39924 0.67877-0.66651 0.67877-1.4682 0.50399-1.6689 1.0677c-0.20069 0.56375 0.0349 0.99415 0.50258 1.5287 0.46769 0.53454 0.55805 1.204 1.1359 1.3364 0.57783 0.13233 1.6491-6e-3 1.6491-0.7286 0-0.72258 0.53577-1.415 0.71255-2.0373s0.43584-1.2849 0.37123-1.6826c-0.0646-0.39778 0.0154-1.043-0.65286-1.2435-0.66822-0.20045-0.5493-0.33408-1.1359-0.33408-0.58659 0-0.58501 0.13485-1.1864-0.19924-0.60136-0.33408-0.70298-0.3323-1.0691-0.60135-0.3661-0.26906-0.8153-0.65374-1.0918-1.0277s0.0681-1.2899-0.57036-1.1583z" stroke-width=".26458px"/><path d="m495.87 210.02s-0.0609 0.85505-1.0533 2.2532c-0.99246 1.3982-2.1005 2.7844-3.0927 4.2754-3.2088 3.5128-6.9963 7.0404-11.011 10.294-4.015 3.2541-8.2575 6.2347-12.376 8.6534-1.2202 1.0581-3.1094 1.9332-5.0522 2.356-1.9428 0.42285-3.9392 0.39352-5.3742-0.35712l-3.2265 8.3424-2.2557 10.679-0.19275-0.11576-18.142-3.1088-19.379-5.7702-4.5687-2.2267-1.2284-0.4191-1.5885-0.74207-0.52194 0.0227-3.4804-1.1865-5.0524 0.76636-2.9378 4.2354-0.63561 4.4328-1.419 3.004-0.86765 3.2944 0.86765 1.1607 0.91829-0.16743 0.81907-0.36536 0.69247-1.495 0.65886-1.4686 0.37984-0.86196 2.8313 2.128 4.8592 1.1348 2.2588-1.634 4.4964 2.7647 5.3356 0.91415 7.8734 1.8516 0.40412 0.14934 23.338 13.976 11.678 3.7279 2.0185-5.302 12.645-16.383-0.27752 1.0392 12.706 14.773 11.876 17.166 34.196 17.601 7.0471-33.364-7.013-24.565-8.0966-11.807s-5.0943-8.802-6.2611-10.594c-1.1668-1.7917-6.2146-8.0729-6.2146-8.0729l-7.7549-6.8353s-3.3243-3.9348-8.825-4.156z" stroke-width=".26458px"/><path d="m429.64 223.64-4.9098 0.60427-3.384 0.0529-5.2271 3.5132-1.5619 2.1365s0.23352 0.73332 0.48958 0.87729c0.25607 0.14396 1.0199 0.50297 1.0199 0.50297l0.87262-0.46397 2.5119-1.8535 3.1634-1.3576 1.4065 0.44184 0.55942 0.24217-1.0915 0.98033-1.2015 1.6451 0.48143 1.2475 0.5839 0.86797-0.61883 0.69158 0.19618 2.0119 1.3075 1.5112 4.0063 0.81093s5.489 0.79409 5.7923 0.75446c0.30328-0.0397 4.5314 0.0513 4.5314 0.0513l3.3031 2.137 7.3169 5.7201 3.4952 2.151 0.85459-4.0465 3.099-7.5279-14.253-6.3079c-1.2475-0.58367-2.4671-1.1515-2.4671-1.1515l-8.483-4.9057z" stroke-width=".17107px"/></g></g></g><circle transform="rotate(5.5797)" cx="617.32" cy="-20.398" r="62.428" fill="none" stroke="#000" stroke-linecap="round" stroke-linejoin="round" stroke-width="2" style="paint-order:markers fill stroke"/></g></g><g font-family="sans-serif" font-size="122.55px" letter-spacing="0px" stroke-width="5.1064" word-spacing="0px"><text x="1519.9724" y="631.32874" style="line-height:1.25" xml:space="preserve"><tspan x="1519.9724" y="631.32874" font-family="sans-serif" stroke-width="5.1064">Monkey</tspan></text>
<text x="33.110764" y="1031.3527" style="line-height:1.25" xml:space="preserve"><tspan x="33.110764" y="1031.3527" font-family="sans-serif" stroke-width="5.1064">Hakoniwa</tspan></text>
<text x="1230.7605" y="1013.0908" style="line-height:1.25" xml:space="preserve"><tspan x="1230.7605" y="1013.0908" font-family="sans-serif" stroke-width="5.1064">Primordial Soup</tspan></text>
<text x="-24.876305" y="624.05634" style="line-height:1.25" xml:space="preserve"><tspan x="-24.876305" y="624.05634" font-family="sans-serif" stroke-width="5.1064">Anima</tspan></text>
</g><g transform="translate(-469.44 103.27)" stroke="#000" stroke-linecap="round" stroke-linejoin="round"><circle cx="1572" cy="864.71" r="108.37" fill="#fff" stroke-width="1.7569"/><g transform="matrix(1.7272 0 0 1.7272 -2187 -835.95)"><path transform="matrix(.26458 0 0 .26458 -189.88 342.82)" d="m8684.5 2122.3 4.5452 461.48 76.655 15.879c0.2846 26.205 37.516 30.917 63.722 30.918 26.41 3e-4 47.818-21.409 47.818-47.818 2.8025-33.464-32.652-64.877-59.906-113.69-20.852-37.345-38.038-99.799-28.772-135.16 17.337-66.155 59.689-86.062 75.342-93.393 24.486-11.468 74.007 0.1183 55.077 44.278-18.93 44.16-40.2 101.05-40.638 153.79-0.038 0.4863-0.037 0.9742-0.037 1.4609 4e-4 0.1504 0 0.2995 0 0.4492 0.2495-0.3303 0.4996-0.6697 0.7207-0.9512 5.7804-6.5313 12.442-13.315 19.529-17.494 5.4717-2.8148 10.746-5.161 16.639-6.6543 6.35-1.5735 14.585-2.4543 24.564-2.625 3.657-0.062 3.8609-0.091 3.8144-0.5645-0.1361-1.4083-0.3618-8.1171-0.3769-11.383-0.072-15.505 5.0778-26.566 8.4472-33.244 3.3695-6.6783 8.3067-11.698 9.3692-12.758 1.0624-1.06 6.4842-6.434 7.539-7.2539 2.2092-1.637 5.1374-4.4799 8.0684-5.4727 1.7801-0.5007 4.2411 0.2173 5.373 1.5684 1.4294 1.7024 1.5082 4.4207 0.1778 6.1621-2.4594 1.9397-5.3581 3.7821-7.3809 5.418-0.4966 0.3284-0.9049 0.6917-0.9102 0.8066 11.207 12.151 20.647 20.99 32.94 33.428l2.6289 2.6621 0.5078-0.4882c1.2235-1.1814 5.1096-5.2887 6.7578-7.127-9.6451-34.43-22.859-62.156-38.522-99.73-15.663-37.574 33.859-55.746 58.344-44.278 15.652 7.3307 58.005 27.237 75.342 93.393 9.2663 35.359-7.9191 97.813-28.772 135.16-27.254 48.811-62.187 79.251-59.384 112.72-2e-4 26.409 21.409 47.818 47.818 47.818 26.206-4e-4 63.085-12.928 63.37-39.133l81.03 24.632v-492.81h-265.72zm280.59 241.94c-0.5159 0.07-3.4373 3.7198-4.8203 6.0215-0.9951 1.6547-3.3979 6.467-3.4511 6.9101-0.038 0.1501 0.4213 0.7016 0.9765 1.2344 11.84 11.207 17.969 18.246 29.115 28.506 0.061 0 1.2441-0.486 2.629-1.1055l-0.037 0.027c2.7421-1.2269 6.756-3.4598 9.1348-5.08l1.5098-1.0274-0.7715-0.6738c-10.351-11.638-25.166-23.033-33.978-34.695 0.076-0.1013-0.051-0.1378-0.3047-0.1114zm-11.252 27.039v0.01c-0.2154-0.041-0.2684 0.3513-0.3515 2.0762-0.2268 4.6735-0.1996 10.456 0.08 16.207l0.1465 3.0508 0.7344-0.045c0.4048-0.026 2.8373-0.1455 5.4063-0.2793 4.4167-0.2283 12.768-1.1456 13.625-1.4961 0.3174-0.1296 0.1054-0.4365-1.0606-1.5449-6.4932-5.6416-11.927-11.549-18.475-17.936-0.038-0.019-0.073-0.035-0.1035-0.043z" clip-path="url(#clipPath1530-6)" stroke-width="2.284" style="paint-order:markers fill stroke"/><path d="m2193.2 979.32c-2.4521 1.7996-4.9985 2.932-8.0898 3.5975-0.8567 0.18456-2.5691 0.43535-3.0489 0.44654-1.0079 0.10061-1.4033 0.11125-1.844 0.13562-0.3412 0.0192-0.7311 0.0343-0.8665 0.035-0.1354 0-0.2602 0.0124-0.2777 0.0261-0.019 0.0144-0.025 0.44386-0.013 0.95724 0.063 3.141-0.2196 5.8906-0.8391 8.1487-1.0473 3.8194-3.1424 7.239-6.3573 10.376-0.8581 0.8372-1.0415 0.938-1.6205 0.8906-0.3367-0.025-0.4815-0.069-0.6377-0.1812h-0.01c-0.2893-0.2081-0.4856-0.497-0.5572-0.8219-0.1326-0.6017 0.01-0.9048 0.7732-1.6474 0.8675-0.8439 1.5489-1.5916 1.5159-1.6634-4.1186-4.0126-5.9776-5.9172-9.2519-9.4925 0.015-0.0432-0.01-0.0597-0.041-0.046-0.036 0.0151-0.2002-0.099-0.3629-0.25855-0.2719-0.26691-0.3023-0.28201-0.3883-0.19224-0.1908 0.19863-0.9977 1.3288-1.3715 1.9213-0.2239 0.35483-0.3744 0.57254-0.514 0.721 1.9457 8.8836 9.8133 15.215 18.908 15.215 10.69-1e-4 19.356-8.666 19.355-19.356v-0.35113c-0.3867-7.1652-1.0684-9.3448-1.746-11.225-0.9043 0.96678-1.8017 2.0892-2.7176 2.7647zm-20.067 4.3444c-0.8429 0.0822-1.4274 0.11421-2.1497 0.23075-0.3919 0.0631-0.4875 0.11901-0.3388 0.19828 1.7113 2.0024 3.5268 3.4992 5.166 5.0402 0.1293 0.1385 0.2606 0.25559 0.2912 0.26033 0.034 7e-3 0.1022-0.49952 0.1663-1.22 0.1057-1.1721 0.1317-2.0231 0.1071-3.5542-0.018-1.1253 0.027-1.0144-0.4209-1.0485-0.2477-0.0247-0.5234-0.0206-0.7296-0.0213-1.0665 0.0729-1.2187 0.0863-2.0916 0.11441zm-5.9901 1.2942-0.3897 0.17234c-0.6835 0.30234-1.7209 0.93878-2.4608 1.5102l-0.7179 0.5547 0.2128 0.23164c2.9117 2.9847 5.8604 5.8809 8.4125 8.6117-0.028 0.0322-0.015 0.0426 0.025 0.0233 0.039-0.0213 0.2935 0.19238 0.5654 0.46747 0.2719 0.27508 0.5123 0.50261 0.5342 0.50576 0.023 0 0.2078-0.27762 0.4135-0.62422 0.4425-0.74551 1.0242-1.9487 1.3445-2.7796l0.2295-0.59513-0.1787-0.19787c-0.099-0.10919-0.5457-0.55566-0.9935-0.99245-2.17-2.2759-4.7512-4.5828-6.6287-6.5038z" fill="none" stroke-width=".60432" style="paint-order:markers fill stroke"/><circle transform="rotate(5.5797)" cx="2262.8" cy="768.83" r="62.428" fill="none" stroke-width="2" style="paint-order:markers fill stroke"/></g></g><g transform="translate(487.5 738.66)"><circle cx="277.16" cy="229.98" r="108.37" fill="#fff" stroke="#000" stroke-linecap="round" stroke-linejoin="round" stroke-width="1.7569"/><path d="m268.57 339.15c-0.7544-0.10356-3.222-0.41163-5.4841-0.68383-23.648-2.8468-47.452-14.84-64.455-32.473-41.434-42.969-40.889-111.12 1.2242-153.1 27.311-27.224 66.623-38.195 103.68-28.936 40.912 10.221 72.519 43.272 80.834 84.526 1.5541 7.7118 2.0406 12.9 2.0353 21.707 0 9.0963-0.50456 14.009-2.2983 22.621-8.1468 39.107-37.956 71.142-76.576 82.296-9.479 2.7377-17.466 3.8902-28.226 4.0735-5.1526 0.0881-9.9855 0.0745-10.739-0.0302zm21.268-3.592c39.756-4.9622 73.2-31.276 86.993-68.447 0.90558-2.4397 1.6464-4.5478 1.6464-4.6846 0-0.13644-22.57 11.037-50.155 24.83l-50.155 25.079-51.12-25.561c-28.116-14.058-51.201-25.479-51.301-25.38-0.0983 0.10016 0.64063 2.3957 1.6445 5.1024 10.756 28.993 32.789 51.444 61.505 62.672 8.1158 3.1732 19.138 5.8166 28.075 6.7327 4.3979 0.45083 18.16 0.24416 22.868-0.34355zm-12.92-38.762-0.12095-11.996-51.641-25.91c-28.402-14.251-51.897-25.921-52.212-25.935-0.43427-0.0189-0.57147 1.7212-0.57147 7.2471 0 6.8598 0.46866 10.987 1.8157 15.988l0.50986 1.8943 50.592 25.328c27.826 13.931 50.853 25.34 51.171 25.354 0.45619 0.0189 0.55332-2.5204 0.45732-11.971zm33.926-30.505c18.096-9.049 32.903-16.554 32.903-16.679 0-0.12435-5.9641-3.2097-13.253-6.8559l-13.253-6.6295v-4.5378c0-4.1362 0.0794-4.5632 0.91389-4.8276 0.50267-0.15874 0.91389-0.43166 0.91389-0.60454 0-0.1731-9.1521-4.8889-20.338-10.48l-20.338-10.166-40.212 20.11v9.5902l-8.6831 4.3461c-4.7758 2.3903-8.6827 4.4468-8.6827 4.5699 0 0.12283 3.7527 2.1007 8.3399 4.3946 4.5872 2.294 8.5002 4.4031 8.6956 4.6867 0.19653 0.28347 0.30992 2.5518 0.25323 5.0406l-0.0983 4.5248 19.853 9.9599c10.919 5.4779 19.905 9.9712 19.968 9.9848 0.0643 0.0151 14.922-7.3787 33.018-16.428zm-24.565 4.8969-4.684-2.3624v-2.181c0-1.1996-0.0983-2.181-0.21544-2.181-0.11716 0-1.1082 0.43321-2.1978 0.96257l-1.9816 0.96261-18.011-9.0744c-9.9058-4.9908-18.065-9.2799-18.132-9.5312-0.10961-0.41488 35.186-38.671 35.96-38.974 0.39004-0.15345 2.058 1.5728 21.643 22.395 8.2091 8.7274 14.925 16.133 14.925 16.457 0 0.32428-3.9557 2.5641-8.79 4.9776l-8.7904 4.3882 2.5066 1.2645c1.3788 0.6954 2.6574 1.4946 2.8426 1.7758 0.1852 0.2812 0.33638 2.1564 0.33638 4.1673 0 2.0109-0.15118 3.8875-0.33638 4.1704-0.3515 0.54009-9.4326 5.2174-10.039 5.1713-0.19276-0.0151-2.4586-1.0897-5.0351-2.3889zm9.2477-1.7993 3.8914-1.9297v-6.1845l-3.9984-2.009-3.998-2.0089-3.9995 2.0086-3.9995 2.0086v5.922l3.9987 2.0383c2.1997 1.121 4.0471 2.0486 4.1064 2.0615 0.0567 0.0151 1.8584-0.84533 3.9987-1.9069zm-6.734-4.0404c-1.4453-0.74597-2.6279-1.5586-2.6279-1.806 0-0.70193 0.9653-0.50109 3.1956 0.66497l2.053 1.0735 2.191-1.1104c2.0568-1.0422 3.4227-1.102 2.818-0.12435-0.23433 0.3783-4.526 2.7385-4.8726 2.6796-0.0718-0.0151-1.3119-0.63235-2.7572-1.3783zm-12.682-27.189c0-16.531-0.15496-24.838-0.4577-24.65-0.24945 0.15572-7.4797 7.8123-16.063 17.015l-15.605 16.732 15.719 7.8934c8.646 4.3414 15.874 7.9047 16.063 7.9183 0.18898 0.0151 0.34394-11.195 0.34394-24.909zm-40.311 19.429 0.13228-2.9911-13.245-6.6059c-7.285-3.6333-13.199-6.7803-13.142-6.9936 0.13984-0.51885 21.691-11.723 22.552-11.723 1.7594 0-0.42066 1.3952-9.5762 6.1296-5.4546 2.8207-10.045 5.2549-10.199 5.4097-0.15496 0.15345 0.7646 0.81128 2.0432 1.4592l2.3252 1.1782 19.205-9.6109v-6.4004l-7.7639-3.8504-16.569 8.393c-9.1128 4.6162-16.718 8.5222-16.9 8.68-0.18142 0.15723 7.2646 4.0804 16.548 8.7165l16.879 8.4294 2.1048-1.0226c1.1577-0.56254 2.307-0.89764 2.5542-0.74494 0.6497 0.40176-0.31748 1.42-1.6702 1.7597-1.5927 0.39983-1.4041 0.85636 0.81827 1.9832 3.2005 1.6226 3.7474 1.315 3.9035-2.196zm113.19-10.357c1.3878-0.68069 2.5145-1.3491 2.5039-1.4852-0.0378-0.13644-6.3995-3.3322-14.196-7.1026-7.7964-3.7702-14.378-7.0936-14.626-7.3855-1.4219-1.6742 1.9022-0.31899 15.332 6.25 8.2137 4.0177 15.179 7.2948 15.479 7.2824 0.29858-0.0151 2.0353-0.78607 3.8566-1.7191l3.3128-1.6963-33.608-16.785-7.5594 3.8008 0.13607 3.2425 0.13606 3.2427 13.253 6.7886c7.2892 3.7336 13.3 6.792 13.357 6.7964 0.0567 0 1.2397-0.54928 2.6275-1.23zm-17.587-42.21c-28.024-14.03-51.213-25.52-51.532-25.534-0.45581-0.0227-0.55294 2.5204-0.45694 11.971l0.12094 11.996 21.218 10.67 21.218 10.67 2.6884-1.285 2.6884-1.2849 17.909 8.9524 17.909 8.9524 9.5943-4.8 9.5947-4.8zm-0.6822-2.8227c28.78 14.389 52.456 26.162 52.613 26.162 0.46677 0-0.26457-8.9241-1.2374-15.081-5.4142-34.287-27.67-64.053-59.145-79.101-29.359-14.037-63.577-13.775-92.77 0.71025-29.076 14.426-49.552 40.456-56.707 72.089-1.2744 5.6342-2.4741 15.168-2.4741 19.665v3.0872l107.39-53.695z" stroke-width=".457"/></g><g transform="translate(215.03 -291.41)"><circle cx="277.16" cy="876.16" r="108.37" fill="#fff" stroke="#000" stroke-linecap="round" stroke-linejoin="round" stroke-width="1.7569"/><path d="m269.45 985.15c-25.612-1.7365-50.574-12.975-68.937-31.038-17.596-17.308-28.321-38.788-32.06-64.211-0.78803-5.3585-0.7971-21.982-0.0378-27.648 3.3445-24.226 13.869-45.895 30.527-62.849 17.692-18.006 41.164-29.423 66.204-32.2 5.3994-0.59883 18.304-0.58915 23.896 0.0265 42.996 4.669 79.29 34.581 92.373 76.131 14.59 46.335-3.3691 96.91-43.98 123.86-15.835 10.507-33.891 16.565-53.553 17.967-6.9547 0.49602-6.7147 0.49659-14.455-0.0265zm-0.78841-5.1549 0.96718-1.9916-45.946-51.272-1.2087 0.62536c-3.2576 1.6843-7.132 1.2096-9.8895-1.2118-2.8297-2.484-3.8547-5.6608-2.9325-9.0863 0.66482-2.4677 3.809-5.78 5.8806-6.1942 0.79294-0.16025 1.5198-0.41616 1.615-0.57199 0.0945-0.15496 0.24189-14.039 0.32504-30.85l0.1474-30.567-2.276-1.0186c-1.2514-0.56012-2.7284-1.5118-3.2821-2.1151-2.2673-2.4708-3.0542-6.6838-1.8051-9.6675 0.86059-2.0554 4.0312-4.7851 5.9834-5.1515l1.6271-0.30539v-15.73c0-14.586-0.0567-15.747-0.79975-15.965-2.2749-0.66928-5.0109-2.4158-5.8239-3.717-0.50457-0.80746-1.0318-1.4756-1.1724-1.4853-0.54085-0.0385-8.403 7.354-11.691 10.991-14.272 15.788-23.137 34.618-26.542 56.379-1.1059 7.069-1.0934 22.731 0.0378 29.952 5.4044 34.929 26.27 63.931 57.309 79.657 11.543 5.8482 24.449 9.6504 38.172 11.245 0.19276 0.0265 0.78426-0.85557 1.3164-1.9507zm22.426 1.2767c20.824-2.8858 39.586-11.364 55.57-25.111 19.104-16.43 31.225-38.539 35.574-64.889 1.1554-7.0022 1.1535-23.486 0-30.619-3.4836-21.469-12.097-39.761-26.254-55.754-3.4609-3.9097-12.357-12.116-13.115-12.098-0.25323 0-0.83225 0.82514-1.2911 1.8205-0.92674 2.0101-2.5912 3.3813-5.2014 4.2849l-1.7333 0.59997-0.12095 15.797-0.12094 15.798 1.7197 0.55101c4.323 1.385 6.8258 5.0891 6.3768 9.4381-0.41801 4.0517-2.8774 6.7853-7.2884 8.0998-0.75704 0.22677-0.79635 1.9924-0.68561 30.957l0.11717 30.717 1.5995 0.41035c4.0214 1.0322 6.7034 5.0123 6.2615 9.2922-0.32882 3.1876-1.6921 5.3588-4.3378 6.909-2.5153 1.4743-5.8772 1.6539-8.2915 0.4427-0.86362-0.43302-1.7061-0.62948-1.8728-0.43718-1.6774 1.9377-42.914 48.644-43.757 49.561l-1.1278 1.227 0.97134 1.2341c0.53367 0.67869 0.97058 1.5149 0.97058 1.8581 0 0.77072-0.20032 0.77378 6.0397-0.0911zm-18.545-4.9951c0.71963-0.37568 1.6687-0.68394 2.1082-0.6853 0.74079 0 0.80013-0.86109 0.80013-11.599v-11.596l-1.4472-0.28951c-1.8826-0.37644-4.2898-2.2336-5.2826-4.0757-0.43313-0.80387-0.89574-2.7703-1.028-4.37l-0.24189-2.9085-20.334-8.4438c-19.925-8.2739-21.286-8.7194-21.811-7.1417-0.11339 0.33751 45.426 51.76 45.863 51.789 0.0378 0 0.65122-0.30274 1.3712-0.67843zm26.969-19.311c9.7353-10.997 19.837-22.402 22.448-25.345 3.7459-4.2225 4.6851-5.5486 4.4519-6.2837-0.16252-0.51288-0.53896-0.93543-0.83678-0.93928-0.29859 0-9.4859 3.7085-20.419 8.249l-19.88 8.2562-0.0378 2.9005c-0.0378 2.4058-0.23434 3.2119-1.2854 4.7271-1.1229 1.6202-3.5501 3.2437-5.8927 3.9411-0.73361 0.21846-0.79975 1.1681-0.79975 11.463 0 10.291 0.068 11.246 0.79975 11.473 0.43993 0.1353 1.4166 0.52807 2.171 0.87046 0.75401 0.34205 1.4139 0.63534 1.4664 0.65163 0.0529 0.0264 8.0606-8.9681 17.796-19.964zm-29.24-19.721c1.0817-1.0816 2.547-1.9894 3.7217-2.3058l1.9374-0.52143-0.12851-6.9486-0.1285-6.9483-24.119-0.11867c-21.448-0.10507-24.15-0.0385-24.392 0.59112-0.1474 0.38989-0.17386 0.80606-0.0567 0.92462 0.257 0.25701 40.671 17.073 41.088 17.095 0.15874 0 1.0919-0.78701 2.0731-1.7683zm32.471-5.5699c9.747-4.0451 18.699-7.7721 19.892-8.2824 1.4891-0.63644 2.1706-1.1974 2.1706-1.7857 0-0.82711-0.78803-0.85776-22.107-0.85776-12.159 0-22.755-0.13002-23.547-0.288l-1.44-0.288 0.12851 7.2288 0.1285 7.2285 1.5027 0.3891c0.82658 0.21279 2.2662 1.1863 3.199 2.161 0.93279 0.97467 1.8444 1.7896 2.0262 1.8103 0.18142 0.0265 8.3044-3.2711 18.051-7.3158zm-27.064-16.638v-3.656l-5.0272-0.36699c-6.271-0.45763-12.35-1.665-16.262-3.2299-1.652-0.66101-3.2338-1.2018-3.5146-1.2018-0.27968 0-5.7143 2.2514-12.074 5.0029-8.9873 3.8881-11.564 5.1866-11.564 5.8269 0 0.77957 1.237 0.83675 23.079 1.0678 12.693 0.1353 23.593 0.23773 24.221 0.22941 1.1225-0.0265 1.1429-0.0801 1.1429-3.6714zm49.127 2.8421c0-0.92213-1.3485-1.6431-11.696-6.2533-11.223-5.0001-11.755-5.1872-13.139-4.6166-5.1341 2.1176-14.912 4.1095-20.293 4.1341h-1.9423v7.769h47.071zm2.3932-4.2324c0.82053-0.89008 2.3142-1.8993 3.3196-2.2422l1.8278-0.62397 0.11716-30.838 0.11717-30.838-1.6056-0.30123c-0.96529-0.17953-2.3698-1.0277-3.5206-2.1226-1.1788-1.1217-2.1872-1.7233-2.6245-1.5669-0.39043 0.14098-4.9259 2.0347-10.078 4.2109l-9.3683 3.9564 0.1285 24.206 0.1285 24.206-1.1766 1.7774-1.1758 1.7774 1.9601 0.87764c1.0783 0.48306 6.0737 2.7272 11.1 4.9871 5.0268 2.2599 9.1888 4.1189 9.2481 4.1313 0.0567 0.0265 0.77896-0.70579 1.5991-1.5962zm-91.044-2.8982c5.1492-2.2328 10.134-4.3816 11.077-4.7757l1.7155-0.71599-1.132-1.668c-0.62249-0.91774-1.2506-2.316-1.3958-3.1074-0.3137-1.721-0.0907-45.5 0.24189-46.38 0.15874-0.42584-2.7564-1.9841-9.5966-5.1289-5.404-2.4848-10.047-4.5231-10.317-4.5298-0.27212 0-0.99023 0.52947-1.5995 1.1919-0.60926 0.66236-2.1891 1.6887-3.5104 2.2806l-2.4026 1.0763 0.11716 30.666 0.11717 30.666 1.7941 0.61682c0.98683 0.3394 2.5259 1.3482 3.4201 2.2425 0.89424 0.89397 1.7348 1.6257 1.8682 1.6257 0.13229 0 4.4553-1.8269 9.6045-4.06zm48.269-2.825c7.827-0.87296 14.809-3.1467 17.295-5.6326l1.1509-1.151v-22.809c0-26.352 0.43578-24.039-4.998-26.543-5.6727-2.6148-10.769-3.4266-21.508-3.4264-7.982 5.7e-4 -10.079 0.15194-14.167 1.0272-4.9928 1.0686-9.9995 3.0884-11.768 4.7472l-1.028 0.96499v46.295l1.028 0.9434c4.9697 4.5588 20.423 7.0973 33.995 5.584zm-18.114-12.974c-7.5133-1.3676-13.762-4.2673-14.084-6.5352-0.23433-1.6567 1.0707-1.7136 3.4322-0.14929 9.261 6.1345 33.686 6.1425 42.146 0.0265 1.0639-0.77072 2.2791-1.3356 2.7005-1.2552 1.07 0.20448 1.1992 1.8664 0.21544 2.7565-1.5235 1.3776-6.4653 3.5471-10.28 4.5129-4.9036 1.2413-18.835 1.6207-24.129 0.65714zm3.3305-14.886c-7.1085-0.89896-12.638-2.7258-15.993-5.2847-1.643-1.253-1.8705-2.0563-0.82734-2.9218 0.55181-0.45815 1.0692-0.3016 2.8082 0.85002 5.0328 3.3338 11.402 4.7445 21.421 4.7445 10.019 0 16.388-1.4107 21.421-4.7445 1.7386-1.1515 2.2564-1.3082 2.8082-0.85002 1.0432 0.86551 0.81524 1.6688-0.82734 2.9218-2.4488 1.868-6.4577 3.4855-10.957 4.4214-4.9293 1.0252-15.081 1.4668-19.854 0.86328zm-3.3056-15.738c-7.9283-1.5022-13.963-4.3703-13.963-6.6363 0-1.6398 1.2155-1.6614 3.4258-0.0608 8.5637 6.2036 34.125 6.0715 42.372-0.21846 0.83716-0.63889 1.8777-1.094 2.3116-1.0111 1.0885 0.20711 1.2314 1.8626 0.23811 2.7606-1.5292 1.3834-6.4713 3.5488-10.28 4.5049-5.0007 1.2552-18.949 1.6373-24.105 0.66048zm-12.529-15.657c0.35528-0.24038-0.26457-1.5561-1.9438-4.1244l-2.465-3.7704-8.9095-0.0941c-4.9002-0.0525-9.7837-0.10205-10.852-0.11339-1.7503-0.0265-1.9419 0.0884-1.9419 1.0744 0 0.98513 1.0326 1.5638 10.249 5.7445l10.249 4.6497 2.547-1.506c1.4007-0.82847 2.781-1.6655 3.0671-1.8603zm60.731-1.2347c7.9393-3.4064 10.07-4.5013 10.183-5.2314 0.13985-0.90089-0.11716-0.92686-10.511-1.062-5.8598-0.0775-10.859-0.0801-11.111 0-0.70412 0.20183-5.0298 7.5601-4.5426 7.727 0.23811 0.0801 1.4578 0.75221 2.7148 1.4914 1.2567 0.73893 2.4968 1.3543 2.756 1.3668 0.26079 0.0264 4.9894-1.9153 10.511-4.2849zm-47.991-1.584c2.2579-0.27704 5.1851-0.50403 6.5046-0.50487h2.3996v-4.5698h-11.909c-9.405 0-11.837 0.1217-11.566 0.57116 0.18898 0.31408 1.2072 1.9283 2.2647 3.5872l1.9223 3.0157 3.1393-0.79725c1.7265-0.43858 4.9867-1.0238 7.245-1.301zm31.916-1.2037c1.1675-1.8918 2.1226-3.5372 2.1226-3.6562 0-0.11868-5.2441-0.21543-11.653-0.21543h-11.653v4.5701h2.3992c3.6151 0 10.026 0.87712 13.246 1.8087 1.5749 0.45569 2.9877 0.85167 3.14 0.88013 0.15118 0.0265 1.2318-1.4961 2.3992-3.3879zm6.3496-10.016c1.4457-2.3497 2.6279-4.4632 2.6279-4.6967 0-0.2347-5.1466-2.7244-11.437-5.5351l-11.436-5.1104-1.519 1.5193c-1.3637 1.3632-2.4208 1.9529-4.9701 2.7722-0.71925 0.23206-0.79975 1.0188-0.79975 7.8041v7.5471l11.996 0.1217c6.5979 0.0661 12.202 0.0608 12.453-0.0265 0.24945-0.0744 1.6396-2.0587 3.0845-4.4079zm19.994 3.7182c0-0.92327-0.92636-1.4663-7.426-4.3521-4.0842-1.8133-7.5538-3.2923-7.7095-3.2865-0.30614 0.0265-5.4293 7.9459-5.4293 8.4104 0 0.15458 4.6273 0.28308 10.283 0.28308h10.282zm-76.775 0.34393c0-0.25133-4.4451-7.4106-5.0313-8.1034-0.17008-0.1988-3.7308 1.1114-7.9189 2.9093-5.6232 2.4138-7.615 3.4742-7.615 4.0537 0 0.43162 0.13606 0.92186 0.30614 1.0893 0.36661 0.36548 20.261 0.41559 20.261 0.0525zm27.42-7.4642v-7.7182l-1.6029-0.30085c-0.95849-0.17952-2.366-1.0266-3.5017-2.1074-1.0447-0.99371-1.9797-1.8067-2.0784-1.8067-0.41121 0-22.785 9.7382-23.154 10.078-0.22299 0.20712 0.85607 2.408 2.4404 4.9719l2.8437 4.601h25.053zm51.749 2.9002c0.82053-0.88982 2.3142-1.8988 3.3196-2.2417l1.8278-0.62317 0.30992-15.695c0.17008-8.6326 0.16252-15.846-0.0378-16.029-0.18142-0.18255-0.93959-0.45736-1.691-0.60767-1.361-0.27364-1.4056-0.21279-10.615 14.399-5.0869 8.07-9.298 14.902-9.3589 15.183-0.0756 0.3583 13.173 6.8922 14.621 7.2103 0.0567 0.0265 0.77934-0.70439 1.5999-1.595zm-85.639-5.4688c0.0907-0.0911-4.125-6.9721-9.3653-15.295-9.4515-15.012-9.5388-15.131-10.884-14.875-0.74646 0.14098-1.4702 0.40872-1.609 0.59248-0.13606 0.18217-0.17764 7.3501-0.0907 15.925l0.15874 15.591 1.8266 0.54716c1.0088 0.30236 2.5655 1.3184 3.4772 2.269l1.6505 1.7216 7.3372-3.1567c4.0354-1.7362 7.4101-3.2296 7.4993-3.3188zm25.893-13.959v-2.895l-20.108-8.5911c-11.06-4.7251-20.301-8.5923-20.536-8.5939-0.56655 0-2.5429 1.8686-2.5429 2.4091 0 0.23207 4.3215 7.2714 9.6038 15.64l9.6038 15.215 23.979-10.289zm50.955-1.6528c5.1526-8.1979 9.4345-15.075 9.5153-15.281 0.28725-0.73591-2.0992-2.8259-2.9616-2.5921-0.46261 0.12699-9.5815 3.9572-20.264 8.5149l-19.422 8.2866 0.0378 2.833 0.0378 2.8328 11.395 5.1369c6.268 2.8253 11.601 5.1455 11.853 5.156 0.24944 0.0264 4.6726-6.6885 9.8253-14.887zm-48.334-4.5107c0.82054-0.89012 2.3146-1.899 3.3196-2.2419l1.8282-0.62343 0.1285-7.3551 0.12851-7.3548h-23.955c-22.292 0-23.976 0.0552-24.259 0.79091-0.17008 0.43495-0.13984 0.8561 0.0642 0.93513 0.20032 0.0801 9.4174 4.0279 20.477 8.7741 11.059 4.7464 20.259 8.6442 20.445 8.6619 0.18519 0.0265 1.0076-0.69664 1.8278-1.5867zm35.195-7.0439c22.158-9.4534 22.562-9.7228 15.354-10.235-2.301-0.1629-12.995-0.29669-23.764-0.29669h-19.581v14.587l1.9313 0.57864c1.1187 0.33525 2.609 1.2938 3.5414 2.2787 0.88592 0.93517 1.9192 1.6373 2.2961 1.5608 0.37795-0.0745 9.4772-3.89 20.222-8.474zm19.678-12.851c0.29103-1.1106 2.0825-0.25436-22.832-10.909l-17.435-7.4565-1.5757 1.5757c-1.4143 1.414-2.4661 2.0062-5.0264 2.8289-0.71622 0.22942-0.79975 0.99704-0.79975 7.3493v7.0926l17.709 0.12435c9.7398 0.0692 20.41 0.17424 23.71 0.23471 5.7358 0.10242 6.0128 0.0661 6.2502-0.83951zm-49.497-6.7698v-7.2611l-1.6029-0.30085c-0.95849-0.17953-2.366-1.0266-3.5017-2.1074-1.0447-0.99372-2.0459-1.8067-2.2254-1.8067-0.97398 0-40.876 16.951-40.838 17.349 0.0378 0.25965 0.0756 0.67952 0.11339 0.93097 0.0454 0.29783 8.4162 0.45679 24.061 0.45679h23.992zm51.743 2.4942 1.2454-1.5019-5.9788-2.8485c-3.2886-1.5666-8.7266-3.7524-12.085-4.8575-5.8208-1.9153-16.219-4.3225-18.531-4.2899-0.59641 0 6.7298 3.3879 16.281 7.5101 9.5512 4.1219 17.469 7.4935 17.594 7.4921 0.1285 0 0.78879-0.67843 1.4736-1.5044zm-83.166-6.051c9.4862-3.9411 17.179-7.2346 17.095-7.3183-0.24945-0.25134-8.9148 1.6144-13.321 2.8698-2.262 0.64441-6.3836 2.0573-9.1586 3.1392-5.1492 2.0084-13.463 5.9908-13.463 6.4492 0 0.50517 0.95395 2.022 1.2729 2.0239 0.18142 0 8.0882-3.2224 17.574-7.1639z" stroke-width=".457"/></g><g transform="matrix(2.7866 0 0 2.7866 -1654.7 -944.52)"><circle cx="928.84" cy="528.67" r="108.37" fill="#fff" stroke="#000" stroke-linecap="round" stroke-linejoin="round" stroke-width="1.7569"/><path d="m919.82 638.14c-5.8707-0.67948-9.9341-1.2997-13.765-2.1013-17.785-3.722-34.433-11.924-48.582-23.937-3.7202-3.1582-11.22-10.93-14.378-14.897-13.011-16.35-20.876-35.447-23.411-56.841-0.55105-4.6519-0.54311-18.674 0.0378-23.319 3.0172-25.189 13.231-46.919 30.367-64.605 18.666-19.266 43.403-30.912 70.241-33.07 5.8416-0.46983 16.814-0.21581 22.186 0.51334 2.0485 0.27817 5.8378 0.93063 8.4208 1.4502 44.189 8.887 78.704 44.735 86.122 89.448 1.0496 6.3267 1.3727 10.612 1.3652 18.086-0.038 16.33-3.1926 30.987-9.8911 45.667-5.402 11.838-12.556 22.092-22.042 31.596-17.08 17.112-37.748 27.499-62.194 31.258-3.6934 0.56773-6.2767 0.71437-13.927 0.79053-5.1659 0.0518-9.9024 0.034-10.526-0.0378zm18.461-3.3774c28.951-2.5948 55.533-16.955 74.021-39.987 3.2386-4.0352 8.4631-12.182 11.111-17.328 5.6073-10.895 9.0142-21.718 10.96-34.817 0.8288-5.579 0.8288-22.275 0-27.854-3.5211-23.702-13.318-43.797-29.349-60.198-14.163-14.49-31.127-24.243-50.711-29.155-8.5826-2.1526-15.632-2.9508-25.911-2.933-8.7133 0.0151-12.851 0.38653-20.081 1.8032-33.606 6.5852-62.513 29.501-76.503 60.648-6.3496 14.136-9.2802 27.93-9.2976 43.762 0 8.1952 0.30992 11.968 1.6339 19.271 8.4314 46.55 47.573 82.409 94.693 86.752 4.4122 0.40679 15.075 0.42629 19.433 0.034zm-18.785-12.525c-1.6777-1.4991-1.717-4.486-0.0945-7.2286 0.0567-0.0949-0.4868-0.11565-1.2057-0.0469-1.2673 0.12095-1.3996 0.034-4.4084-2.9062-3.8752-3.7868-7.1936-7.8871-11.102-13.719-1.6713-2.494-3.1578-4.6672-3.3033-4.8294-0.14741-0.16252 0.39193 1.3682 1.1943 3.4008 2.5576 6.4787 4.3453 13.056 4.3453 15.987 0 1.3725-1.3353 2.7686-2.6479 2.7686-2.2496 0-4.306-1.7894-9.4919-8.259-2.6207-3.2697-3.5751-4.8119-6.0125-9.7164-1.5931-3.2064-2.8974-5.6038-2.8985-5.3277 0 0.27628 0.28724 1.8067 0.63911 3.4007 0.70942 3.209 0.85153 7.253 0.29103 8.3448-0.50268 0.98279-1.6142 1.8254-2.4204 1.834-0.89424 0.0151-4.1752-3.4216-6.048-6.3244-1.6278-2.5226-3.6733-6.5058-5.9153-11.519-0.82772-1.8502-1.6014-3.466-1.7197-3.5908-0.11716-0.12434-0.21921 1.6241-0.22677 3.8866-0.0378 4.6515-0.48151 6.3151-1.931 6.8661-1.6131 0.61349-4.2678-1.0939-6.2948-4.0485-0.48869-0.71248-1.6675-3.0289-2.62-5.1473-1.9669-4.3765-2.7798-5.4976-4.413-6.0881-0.81184-0.29367-1.3474-0.7985-1.8202-1.7156l-0.66973-1.2996-0.26079 0.98177c-0.56088 2.116-2.3414 3.1056-4.4372 2.4661-3.3664-1.0272-8.8766-8.2833-11.35-14.946-0.84963-2.2891-5.0415-19.163-5.6878-22.896-0.76762-4.435-0.93052-9.6704-0.54236-17.427 0.95736-19.123 4.0925-29.516 13.068-43.319 1.2446-1.9148 2.471-3.4819 2.7243-3.4819 1.0307 0 0.69997 1.0481-1.2903 4.0894-7.5239 11.497-11.098 21.572-12.511 35.262-0.18142 1.7811-0.42633 6.8096-0.53896 11.174-0.25323 9.7497-0.0378 11.485 3.109 24.263 2.6279 10.703 2.9186 11.649 4.636 15.088 3.0387 6.0859 7.282 10.85 9.6642 10.85 1.1754 0 1.5753-0.75587 1.9412-3.6701 0.15874-1.2552 0.45582-2.3868 0.66331-2.5152 0.6463-0.3995 1.1989 0.0431 1.5923 1.2747 0.99137 3.1035 1.604 4.0916 2.9114 4.697 1.7495 0.81026 2.6483 2.0941 4.7331 6.7616 1.8935 4.2404 3.0807 6.0441 4.9213 7.4788 2.442 1.9032 2.9805 0.5667 2.8728-7.1272-0.0794-5.7826 0.12473-6.8359 1.1607-5.9754 0.24945 0.20825 1.8796 3.4574 3.6189 7.2201 3.3075 7.1549 4.4451 9.3302 6.3912 12.219 1.4876 2.2093 4.1118 4.9601 4.5842 4.806 0.64895-0.21127 1.1603-2.2813 0.97739-3.9557-0.0983-0.89057-0.60359-3.7433-1.1252-6.3393-1.0893-5.4209-1.1354-6.0785-0.44598-6.3433 0.95206-0.3651 2.0398 1.256 5.4346 8.0988 3.0384 6.1246 3.7553 7.2974 6.7661 11.061 4.2807 5.3518 6.4566 7.3575 7.8361 7.2229 0.86664-0.0847 1.0125-0.23773 1.1006-1.1531 0.27213-2.8161-1.5167-8.7918-5.9478-19.875-1.683-4.2107-3.0603-7.9019-3.0603-8.2026 0-0.37418 0.21921-0.51387 0.69052-0.44323 0.5023 0.076 1.81 1.8739 4.7974 6.5991 6.8421 10.821 9.8929 14.837 15.221 20.035 3.3502 3.2684 3.7871 3.3114 3.6832 0.36208-0.0718-2.0376-0.49663-3.7673-1.6241-6.6072-0.67237-1.6939-0.74003-2.1147-0.37795-2.3534 0.31748-0.20901 0.85077 0.15193 1.8996 1.2856 0.80164 0.86687 2.2125 2.2639 3.1347 3.1047l1.6774 1.5288 2.7764-4.6932c1.5266-2.5814 2.7757-4.861 2.7757-5.066 0-0.20485-3.1128-5.5727-6.9177-11.928-20.454-34.167-26.381-45.697-30.5-59.328-0.83414-2.7611-2.2163-6.6962-3.0712-8.7448-1.9389-4.6454-2.411-6.8019-1.9446-8.8835l0.34394-1.5342-2.2847-2.8653c-4.9686-6.2305-7.4192-7.7363-13.274-8.1558-6.0382-0.43302-8.634-1.4409-11.441-4.4425-0.89348-0.95497-1.5934-1.4756-1.6694-1.2417-0.0718 0.22148-0.32882 1.1308-0.56655 2.0205l-0.43465 1.6178-1.6978-6.6379c-0.93355-3.6508-1.793-7.0022-1.9094-7.4475-0.1474-0.57173 1.3765 0.70575 5.19 4.3443 2.9715 2.8351 5.3598 5.1976 5.3072 5.2501-0.0529 0.0537-0.93997-0.12435-1.9725-0.39466-1.0322-0.26948-2.0379-0.43631-2.2345-0.37077-0.52384 0.17423 2.2579 3.0688 3.8408 3.9964 1.6804 0.98472 5.1088 1.7362 7.9567 1.7437 5.5623 0.0151 9.6011 2.6812 15.109 9.9773l1.7828 2.3608-0.41802 1.7418c-0.52384 2.1849-0.25323 3.4106 1.9771 8.8773 0.89802 2.2022 2.2091 5.9767 2.914 8.3874 3.7043 12.668 9.5588 24.073 29.681 57.827 4.015 6.7341 7.403 12.127 7.5292 11.983 0.12851-0.14324 2.2129-3.5761 4.6364-7.6287l4.4062-7.3686-2.9019-0.0484c-1.5961-0.0264-3.0845-0.0639-3.3067-0.0813-0.27212-0.0227-0.4645 0.70715-0.58696 2.2347-0.0983 1.2472-0.35527 2.5877-0.56919 2.9793-0.89953 1.6535-3.0433 2.2001-4.8873 1.2466-1.8516-0.95743-1.8225-0.51005-1.6826-25.735l0.12851-23.129-3.0433 2.5758c-5.4626 4.6236-13.548 10.808-14.13 10.808-0.18898 0-0.43805-0.25096-0.55559-0.55793-0.15118-0.38619 0.0567-0.75477 0.66331-1.1971 2.5115-1.8293 10.444-8.0886 13.523-10.671l3.5157-2.9477-1.7552-0.52075c-5.8284-1.7304-10.964-6.6962-13.055-12.624-0.26456-0.74982-0.63231-2.3116-0.81751-3.4709-0.32126-2.0112-0.449-2.2276-2.7904-4.735-3.2549-3.4852-5.345-6.4955-6.6153-9.529-0.96605-2.3062-1.0609-2.8636-1.2767-7.5112-0.1852-4.0022-0.37871-5.4-0.9498-6.8936-1.9536-5.1102-7.3788-9.4912-14.937-12.062-2.5841-0.87881-12.603-3.1802-12.835-2.9482-0.0869 0.0865 0.26835 0.78781 0.78954 1.5573 0.5212 0.76966 1.0636 1.597 1.2053 1.8385 0.13985 0.24151-2.6831-1.0505-6.2767-2.8719-3.5936-1.8212-6.455-3.39-6.359-3.4862 0.16252-0.16252 11.995-1.3248 13.784-1.3534 0.66822-0.0151 0.47508 0.20938-1.1074 1.2617-1.7609 1.1707-1.8531 1.2894-1.1335 1.4571 0.43087 0.10016 2.722 0.62423 5.0914 1.164 9.7225 2.215 14.825 4.5602 19.075 8.7674 3.8324 3.7932 4.9916 6.6937 5.1005 12.763 0.0869 4.719 0.6342 6.9266 2.5716 10.327 0.93014 1.6341 6.0423 8.0637 6.2472 7.8587 0.0378-0.0397 0.30614-1.2326 0.59603-2.6522 1.5209-7.4784 7.4203-13.635 14.882-15.532 2.4435-0.62127 6.8614-0.62286 9.4874 0 7.8327 1.8466 14.158 8.8664 15.151 16.814 0.12473 0.99455 0.34394 1.8084 0.49059 1.8084 0.65688 0 5.1334-5.2529 6.7464-7.9157 2.0946-3.4595 2.6827-5.6733 2.8014-10.546 0.14362-5.9063 0.8039-7.9423 3.7039-11.413 4.2002-5.0264 9.9882-7.9075 20.741-10.324 3.117-0.70038 5.8122-1.3182 5.9887-1.3733 0.17764-0.0552-0.51817-0.65688-1.5436-1.3376-1.025-0.6807-1.8255-1.27-1.7783-1.3094 0.0831-0.0692 13.005 1.0232 14.336 1.212 0.3905 0.0552-1.9396 1.4082-5.8749 3.4114-3.5868 1.8258-6.6149 3.3197-6.7287 3.3197-0.11339 0 0.30614-0.76308 0.93543-1.6961 0.62816-0.93272 1.1422-1.7916 1.1422-1.9089 0-0.11754-0.54615-0.0847-1.2144 0.0726-0.66822 0.15723-3.1378 0.72661-5.4882 1.2664-5.7967 1.3313-8.2269 2.1108-11.216 3.5987-3.2908 1.6381-5.0676 2.8777-7.1369 4.9801-3.2073 3.2593-4.4152 6.5746-4.4217 12.136 0 6.2718-1.6059 9.9693-6.9192 15.999-1.2431 1.4108-2.7235 2.8382-3.2897 3.1723-0.92258 0.54459-1.0688 0.84476-1.4071 2.8938-1.0284 6.2267-5.0245 11.653-10.658 14.472-1.3765 0.68901-2.8664 1.355-3.3105 1.4801l-0.80844 0.22753 1.2956 1.1468c2.053 1.8174 8.7409 7.2084 12.632 10.183 1.9593 1.498 3.6582 2.8608 3.7754 3.0289 0.27969 0.39983-0.0378 1.174-0.46223 1.174-0.77443 0-12.762-9.41-18.293-14.359l-0.72869-0.65223v24.728h4.3461c2.3902 0 4.5762 0.0881 4.8578 0.19653 0.41424 0.15874 0.51251 0.74929 0.51251 3.0769v2.8804h-4.2108v6.1798l2.6336-0.093 2.6332-0.0949 3.5584-6.1538c12.246-21.176 16.903-30.857 20.047-41.668 0.74305-2.5556 1.9748-6.1099 2.7371-7.8983 2.18-5.113 2.5916-6.9024 2.0784-9.0405l-0.42444-1.7715 1.883-2.5226c2.9518-3.954 6.4951-7.2884 9.0316-8.4988 1.8954-0.90474 2.6899-1.0768 6.1255-1.3276 5.0782-0.37078 6.5904-0.83131 9.1733-2.7948 0.9173-0.69695 2.7092-2.9443 2.7092-3.3975 0-0.10015-0.98234 0.0915-2.1831 0.42354-1.2004 0.33297-2.2726 0.56825-2.3822 0.5232-0.10961-0.0446 2.1298-2.3105 4.9769-5.0344 2.8471-2.7239 5.2395-4.8891 5.317-4.8116 0.1776 0.17613-3.1585 13.23-3.473 13.594-0.1285 0.14664-0.4316-0.5562-0.6773-1.5623l-0.4464-1.8293-0.9709 1.3274c-1.2314 1.6839-4.2887 3.7675-6.437 4.3868-0.91237 0.26305-3.4122 0.60733-5.5548 0.76482-3.1767 0.23395-4.1994 0.44047-5.5419 1.1208-2.1706 1.0999-4.7573 3.5008-7.5632 7.019l-2.2847 2.8651 0.34394 1.5342c0.46715 2.0846 0 4.2404-1.9544 8.9041-0.8606 2.0597-2.1717 5.7762-2.9133 8.2588-4.2712 14.297-9.6582 24.683-33.504 64.594-14.689 24.584-15.398 25.854-15.392 27.556 0 1.724 0.21166 2.0936 1.4241 2.5544 1.0881 0.41367 3.8135-0.24416 5.6958-1.3756 2.7095-1.6279 3.8082-2.8333 5.4777-6.0089 1.4982-2.8492 2.1146-3.6102 6.1364-7.5744 3.1483-3.1028 4.5993-4.3276 4.9039-4.1393 0.34771 0.21468 0.26456 0.65344-0.41462 2.2221-1.6146 3.7231-2.2734 9.1137-1.1138 9.1137 0.74495 0 7.9408-7.6558 10.723-11.409 2.2704-3.0629 6.0627-8.8215 11.415-17.335 0.52536-0.83614 1.7382-0.98849 1.7382-0.21845 0 0.28082-1.5213 4.3251-3.3808 8.9876-3.8298 9.6017-5.4055 14.774-5.4773 17.975l-0.0454 2.162 0.99931 0.0983c1.3788 0.13493 3.5524-1.8685 7.8387-7.2229 3.0259-3.7799 3.7153-4.9078 6.7381-11.03 3.36-6.8051 4.2618-8.241 5.1753-8.241 0.91464 0 0.89159 1.0857-0.13228 6.2849-0.56429 2.867-1.1093 5.7959-1.211 6.5084-0.19653 1.375 0.42331 3.7557 1.0288 3.9538 0.19654 0.0654 0.97361-0.50767 1.7276-1.2708 2.8879-2.924 5.4898-7.4753 10.37-18.14 2.1596-4.7191 2.6888-5.4805 3.3483-4.8196 0.27968 0.28195 0.37039 1.9518 0.3137 5.9619-0.11717 8.5332 0.52309 9.515 3.9254 6.0059 1.6928-1.7462 2.2522-2.6511 3.721-6.0201 2.0716-4.752 3.1211-6.283 4.8605-7.0887 1.3292-0.61592 1.9355-1.5885 2.9314-4.7067 0.765-2.3941 1.9498-1.8233 2.1993 1.0595 0.2116 2.409 0.8341 3.851 1.6705 3.851 2.2882 0 7.0851-6.333 10.151-13.401 2.0285-4.6768 4.6878-14.718 5.9724-22.55 0.6732-4.1034 0.7442-19.83 0.121-26.882-1.1418-12.937-4.7203-23.436-11.46-33.621-2.0968-3.1693-2.4544-4.2728-1.3852-4.2728 0.6856 0 5.1092 6.9841 7.4869 11.822 3.391 6.8986 5.2868 13.278 6.4966 21.862 0.8225 5.8349 1.0322 25.496 0.3251 30.607-0.6486 4.6941-2.0776 11.097-3.7954 17.004-2.4956 8.5804-7.6146 17.464-11.582 20.101-2.3936 1.5908-4.1518 1.0805-5.0204-1.4568l-0.4365-1.2747-0.6524 1.2788c-0.4512 0.88418-0.9951 1.4027-1.7627 1.6805-1.6517 0.59708-2.3528 1.5286-4.2441 5.6392-0.9437 2.0511-2.0957 4.3711-2.5595 5.1556-1.7976 3.0418-4.868 5.1484-6.5643 4.5034-1.4453-0.54939-1.9124-2.2134-1.9287-6.8659 0-2.2622-0.1096-4.0112-0.23055-3.8864-0.11716 0.12434-0.89197 1.7402-1.7193 3.5904-2.2424 5.0128-4.2875 8.996-5.9153 11.519-1.8728 2.9028-5.1541 6.3338-6.048 6.3244-0.80618-0.0151-1.9181-0.85099-2.4208-1.834-0.55824-1.0918-0.4165-5.1358 0.2948-8.3448 0.3515-1.5941 0.6361-3.1246 0.63043-3.4008 0-0.27628-1.2242 1.9756-2.708 5.0038-2.1218 4.3297-3.3131 6.2987-5.5767 9.2162-5.297 6.8272-7.8077 9.0832-10.109 9.0832-1.313 0-2.6483-1.3963-2.6483-2.7687 0-2.9317 1.7877-9.5088 4.3453-15.987 0.80239-2.0326 1.3398-3.5629 1.1943-3.4008-0.1474 0.16252-1.632 2.3354-3.3033 4.8294-3.9734 5.9294-7.268 9.9917-11.123 13.716-3.0157 2.9135-3.1827 3.0237-4.4141 2.9062-0.70375-0.0673-1.234-0.045-1.1785 0.0484 0.89613 1.516 1.2518 2.9437 1.1222 4.507-0.12473 1.4949-0.30993 1.9107-1.2178 2.7216-1.0084 0.90111-1.1962 0.94809-3.2073 0.80319-2.0833-0.15043-4.4387-1.064-6.5155-2.5276-0.72907-0.51386-0.88441-0.52388-1.4574-0.0949-1.8459 1.3852-4.6114 2.4731-6.6641 2.6214-2.0115 0.14513-2.1993 0.0983-3.2077-0.80281zm19.324-0.76241c1.1853-0.45078 1.3931-0.82787 1.3992-2.5418 0-1.1535-0.3515-2.0426-1.8384-4.6154-1.014-1.7528-1.9544-3.1867-2.0901-3.1867-0.39345 0-2.0719 2.6032-2.8558 4.4302-0.39609 0.92254-0.99779 1.929-1.338 2.2364-0.34016 0.30728-0.61757 0.74067-0.61757 0.9628 0 0.54958 2.0489 1.7386 4.21 2.443 2.1645 0.70552 2.0213 0.69309 3.1306 0.27175zm-17.386-9.899 1.028-1.8222-1.225-1.2547c-0.67389-0.69022-1.3258-1.2547-1.4494-1.2547-0.12095 0-0.0983 0.54649 0.0567 1.2146 0.15496 0.66792 0.28724 2.0525 0.29102 3.0767 0 1.0244 0.068 1.8625 0.13984 1.8625 0.0718 0 0.59377-0.82008 1.1596-1.8223zm18.943-3.9933c0.4834-0.78259-0.43502-0.24643-1.5708 0.91646l-1.225 1.2547 1.0787 1.903 1.0779 1.9032 0.21544-2.8195c0.11716-1.5507 0.30992-2.9719 0.42406-3.1579zm-5.983-79.092c2.4091-1.1113 4.3895-3.1325 5.6122-5.7277 0.8776-1.8623 1.0152-2.51 1.0095-4.7476-0.0378-3.4064-1.0953-5.9136-3.5849-8.2681-2.6037-2.4623-4.1654-3.0683-7.8951-3.0624-3.7701 0-5.4153 0.6909-8.1252 3.3837-4.2425 4.215-4.4304 11.071-0.42595 15.525 2.6665 2.9662 5.0374 3.9675 9.0368 3.8168 1.9408-0.0744 3.0384-0.30349 4.3725-0.91937zm-85.465-50.826c-2.4707-0.52233-4.2505-2.7484-4.2505-5.3164 0-3.0004 1.985-5.0528 5.0967-5.2707 1.5609-0.10885 2.0515 0 2.9926 0.63443 2.4673 1.6764 3.315 4.6487 2.0731 7.2658-0.94526 1.9915-3.5664 3.1827-5.9119 2.6869zm159.84-0.034c-2.6358-0.56239-4.0958-2.4746-4.0958-5.3646 0-1.8711 0.8545-3.369 2.5984-4.5542 0.9418-0.63972 1.4317-0.74373 2.993-0.63439 3.1117 0.2177 5.0963 2.2701 5.0963 5.2707 0 3.5035-3.1393 6.0194-6.5919 5.2826z" stroke-width=".32388"/></g><text x="665.1814" y="118.73663" font-family="sans-serif" font-size="187.26px" letter-spacing="0px" stroke-width="7.8023" word-spacing="0px" style="line-height:1.25" xml:space="preserve"><tspan x="665.1814" y="118.73663" font-family="sans-serif" stroke-width="7.8023">TKOH</tspan></text>
<text x="614.85199" y="190.35861" font-family="sans-serif" font-size="63.944px" letter-spacing="0px" stroke-width="2.6643" word-spacing="0px" style="line-height:1.25" xml:space="preserve"><tspan x="614.85199" y="190.35861" font-family="sans-serif" stroke-width="2.6643">The Key Of Huanche</tspan></text>
</g></svg>
